<?xml version="1.0" encoding="UTF-8"?>
<svg id="Calque_1" data-name="Calque 1" xmlns="http://www.w3.org/2000/svg" viewBox="0 0 1920 1080">
  <path d="M1499.61,507.88c4.97,4.96,14.26,23.91,14.59,30.69.24,4.97-6.92,15.76-12.12,16.41-3.82.48-12.67-3.18-15.5-5.89-6.31-6.05-6.6-25.42-16.63-25.45-1.77,0-13.66,3.79-15.92,4.71-8.52,3.46-22.33,17.65-27.34,25.46-23.08,35.99-37.72,89.37-4.66,124.25,37.37,39.43,97.25,20.4,129.38-15.67,23.61-26.5,25.36-46.93,35.1-79.45,20.88-69.65,43.51-139.05,64.05-208.91,4.22-14.35,6.82-29.13,11.14-43.45,1.51-5,11.31-35.06,14.96-35.65,7.92,2.09,39.1,6.75,43.85,11.34,3.03,2.93,7.16,19.23,6.4,23.24-.71,3.75-4.26,8.41-5.68,12.26-22.04,59.74-43.88,119.64-65.77,179.44-2.12,5.79-17.16,37.42-14.1,40.93,3.82-.76,7.66-2.72,11.01-4.64,14.24-8.19,32.67-20.36,46.19-29.88,15.82-11.15,29.82-24.66,45.69-35.75,8.16-2.57,20.4,5.23,18.65,14.14-1.88,9.56-28.76,26.31-36.93,32.91-19.21,15.51-40,35.18-60.51,48.68-9.37,6.17-20.96,10.43-27.67,19.74-.04,2.18,18.59,26.99,21.49,31.33,21.19,31.59,47.02,71.33,62.51,105.74,1.7,3.77,5.82,11.28,5.32,14.85-.65,4.64-6.41,13.8-11.22,14.84-1.07.23-16.61-5.34-18.38-6.3-4.43-2.41-19.32-30.77-24.09-37.66-14.87-21.48-32.07-41.49-47.44-62.64-6-8.25-12.77-15.93-19.08-23.9l-2.24.64c-5.03,13.71-8.57,28.18-13.39,41.92-1.92,5.47-13.3,36.62-15.52,38.62-7.35,6.63-24.32.37-23.71-7.99.54-7.46,7.8-19.34,3.31-26.1-2.99-4.51-9.26,5-12.15,7.36-15.97,13.05-50.87,28.46-71.41,29.73-56.29,3.47-104.46-13.25-125.34-68.97-.76-2.02-2.89-11.61-3.6-11.6-17.89,14.96-31.78,31.64-52.66,43.09-27.9,15.31-52.92,24.01-84.77,15.54-13.45-3.58-35.19-15.86-44.72-25.99-1.81-1.92-7.4-12.15-9.25-11.99-9.2,6.38-16.21,13.87-25.96,19.75-22.79,13.74-51.05,25.75-77.39,30.01-29.48,4.77-66.89-9.87-90.88-26.74-6.7-4.71-12.24-11.2-18.92-15.96-2.95,6.49-9,8.9-13.5,13.38-20.55,20.44-32.56,37.18-59.46,51.52-37.7,20.1-89.7,35.68-132.16,39.69-18.71,1.77-47.25-.6-65.7-4.78-10.62-2.4-20.68-6.66-31.1-9.17-9.27-2.24-39.48-5.59-42.07-17-3.32-14.61,11.78-7.16,19.96-6.54,9.13.69,18.56-.12,27.72.92,10.22,1.16,20.72,5.37,30.46,6.24,12.46,1.12,27.48-.15,40.3-.02,34.61.33,77.48-13.25,109.04-27.83,28.72-13.27,47.07-27.74,70.4-48.63,50.22-44.98,95.25-98.29,115.69-163.54,10.82-34.56,20.74-69.58,23.74-105.84,1.86-22.51-4.72-57.53-11-80.09-23.72-85.08-80.11-173.9-159.17-216.72-7.24-3.92-23.52-12.17-29.03-1.88-4.81,8.99-9.4,45.3-10.82,57.19-2.15,17.91-1.38,35.65-2.82,53.56-2.9,36.14-10.81,71.43-19.75,106.44-3.46,13.54-10.01,26-14.5,39.2-23.75,69.76-38.13,144.01-63.29,213.24-9.52,26.2-21.75,47.93-26.62,76.3-3.57,20.82-8.29,37.25-16.34,57.04-3.16,7.76-5.73,15.17-13.5,19.61-23.6,13.47-48.76-15.4-54.15-36.21,5.28-17.76,11.49-35.25,16.86-52.98,20.23-66.72,45.51-131.31,60.91-199.52,21.42-94.85,44.2-189.68,63.01-285.12,5.67-28.76,9.18-55.85,19.04-83.88,3.61-10.27,9.37-27.98,21.45-30.46,16.55-3.4,47.45,2.2,63.98,6.83,28.9,8.09,58.21,28.97,83.33,45.55,88.03,58.11,153.25,147.35,159.74,255.52,3.08,51.35-19.04,97.17-36.43,143.43-8.31,22.09-14.42,39.82-26.06,60.75-15.09,27.14-35.51,49.56-51.19,75.89-2.05,3.44-8.08,13.37-7.85,16.78.67,10.07,7.55,24.7,15.02,31.57,13.91,12.79,42.29,24.27,60.87,18.77,10.96-3.24,21.67-5.68,31.93-11.02,11.71-6.09,46.39-28.08,53.57-37.72,5.03-6.76-1.5-18.17-2.24-26.43-5.39-59.94,16.6-126.87,71.66-157.41,15.29-8.48,45.73-2.67,54.27,13.61,28.32,53.97-29.28,109.09-61.94,146.96-7.98,9.25-16.88,17.78-23.44,28.19,3.4,5.85,8.34,12.29,13.74,16.39,5.74,4.37,29.2,16.58,35.77,17.09,14.88,1.15,33.16-6.95,46.3-13.48,29.39-14.59,59.04-42.77,75.59-71.19,18.95-32.53,22.11-66.39,57.17-88.71,24.07-15.32,71.64-24.84,93.96-2.53ZM1200.74,511.33c-2.43.48-9.32,5.4-11.69,7.14-26.29,19.31-33.04,65.91-25.24,95.6.38,1.45,1.33,6.84,2.71,7.15,1.27.17,1.9-1.01,2.68-1.78,21.8-21.24,49.11-56.73,48.76-88.16-.09-8.38-7.52-21.86-17.23-19.95Z"/>
  <path d="M354.91,307.32c4.49-.54,4.95,1.21,7.86,1.53,4.31.48,9.02-.31,13.37.06,14.24,1.2,45.45,14.78,56.42,24.13,6.8,5.79,12.25,15.21,18.31,20.18,3.42,2.8,6.27,3.42,9.89,7.12,28.2,28.77,39.58,58.76,39.4,99.39-.11,25.02,1.27,50.88-5.15,75.39-9.61,36.65-25.73,74.06-42.16,108.19-25.93,53.83-52.44,81.2-102.62,113.07-34.68,22.02-91.91,12.95-124.81-9.5-6.25-4.27-11.21-9.66-17.15-14.17-23.05-17.46-33.4-20.14-42.91-50.17-20.86-65.89-.27-170.18,33.31-229.83,24.08-42.77,66.14-103.79,109.9-127.27,11.86-6.36,33.33-16.56,46.36-18.12ZM364.81,329.7c-16.78.84-54.57,19.91-66.99,31.54-11.07,10.37-14.88,21.24-22.2,33.29-11.07,18.23-22.47,33.85-31.37,53.66-32.65,72.7-34.31,133.26-26.38,211.36,2.43,23.97,17.89,58.79,36.52,74.46,24.09,20.27,70.25,10.47,94.38-5.92,18.52-12.58,47.69-58.08,60.42-78.3,32.87-52.2,46.43-123.57,47.03-184.76.27-27.87-.31-46.48-11.16-72.88-5.66-13.77-19.24-34.14-30.94-43.34-9.15-7.19-38-19.66-49.31-19.1Z"/>
  <path d="M1673.35,950.77c54.91-7.53,56.7,98.45.17,89.75-40.18-6.18-38.78-84.46-.17-89.75ZM1662.24,964.27c-10.46,11.22-9.53,52.01.11,63.26,7.2,8.4,22.71,9.11,31.35,2.65,14.13-10.57,12.99-54.52,1.25-66.57-8.08-8.29-24.86-7.76-32.71.66Z"/>
  <path d="M223.09,951.43c11.1.87,23.57,4.41,28.01,15.85,5.7,14.68-2.66,28.66-17.67,32.08-1.54.35-6.25-.23-5.41,1.73l28.63,38.93-11.24-.82c-10.41-13.66-17.58-33.25-33.5-41.23l-.91,42.06-8.95-.89v-86.36l1.34-1.34h19.69ZM211.9,994.38h14.77c.85,0,7.11-1.93,8.24-2.51,10.22-5.2,10.82-25.44-1.54-30.14-3.31-1.26-19.1-3.94-21.04-1.38-1.98,2.63-1.8,32.87-.43,34.02Z"/>
  <path d="M878.74,1001.54c3.69-25.62-16.05-22.36-31.79-12.78-1.95-1.26-5.8-5.24-2.93-7.2,10.41-7.15,36.53-12.02,42.32,3,2.49,6.47,1.54,23.19,1.39,30.9-.1,5.03-2.53,10.92.08,15.96,1.62,3.12,7.08,4.23,1.64,9.02-4.72,4.16-8.59-3.54-9.82-7.56l-12.68,7.44c-18.05,5.61-34.42-10.35-23.86-27.43,3.34-5.4,12.78-11.33,19.1-11.33h16.56ZM878.74,1006.91h-14.77c-1.18,0-8.19,3.11-9.36,4.06-7.94,6.45-5.92,23.73,5.89,24.54,6.79.47,18.24-6.52,18.24-13.83v-14.77Z"/>
  <path d="M603.05,1001.54c3.5-26.24-16.72-22-32.58-12.58l-3.25-5.83c-.12-1.69,7.85-4.95,9.63-5.55,43.69-14.84,35.1,23.78,34.28,52.13l5.13,6.27c-4.62,9.95-10.02,4.88-12.33-3.12-3.78,1.49-6.14,4.8-10.11,6.43-18.35,7.51-37.24-6.64-26.75-25.85,3.23-5.93,12.72-11.9,19.43-11.9h16.56ZM603.05,1006.91c-13.1-.82-29.39-.65-28.69,16.58.82,20.11,28.69,11.07,28.69-2.71v-13.87Z"/>
  <path d="M311.71,1009.6c-2.01.59-.51,7.94-.04,9.89,2.75,11.38,10.07,15.3,21.52,14.26,3.4-.31,13.44-4.65,14.23-4.42.91.26,1.42,1.28,1.5,2.21.47,5.45-13.2,9.06-17.53,9.36-44.47,3.03-38.72-75.01,1.93-65.44,11.75,2.76,17.19,13.7,18.1,24.86.24,2.88.96,7.25-1.23,9.28h-38.49ZM310.36,1002.44h31.33c1.12-13.11-6.79-25.89-21.21-19.86-7.79,3.25-8.77,12.53-10.12,19.86Z"/>
  <path d="M677.35,975.59v50.56c0,1.53,3.07,5.31,4.51,6.23,9.14,5.79,21.85-1.45,25.07-10.65l-.05-45.25,8.96-.89v55.04c0,.55,4.08,3.74,3.49,6.08l-5.73,5.16c-2.82,0-3.96-7.41-6.27-9-8.09,6.59-15.26,10.78-26.2,8.32-11.58-2.6-12.14-10.99-12.75-21.26-.87-14.47,1.1-28.99.94-43.43l8.05-.9Z"/>
  <path d="M991.52,1040.02l-8.9-.94c-1.85-1.9,2.86-44.17-2.32-52.72-5.91-9.74-19.4-.38-25.93,4.43l-.57,47.76-1.34,1.34-7.48.12v-57.72c0-.91-2.53-3.95-1.79-5.81l9.85-.9c.72.71-1.44,10.02,1.32,8.94,3.24-1.26,7.54-6.51,12.36-8.23,6.46-2.31,12.43-2.06,18.08,1.98,2.59,1.85,6.72,7.12,6.72,10.29v51.46Z"/>
  <path d="M1284.21,975.59v48.77c0,.47,1.62,5.92,2.05,6.47,1.4,1.78,7.82,3.7,10.14,3.73,5.32.07,16.69-6.61,17.4-11.94.87-6.53-1.49-43.96.94-46.04l7.96-.1v52.35c0,2.25,5.43,6.31,2.74,9.9-5.43,7.27-8.92-.26-9.92-5.87-3.49,1.53-6.04,4.27-9.65,6-11.22,5.38-28.45,3.94-29.76-10.89-1.45-16.39,1.15-34.87.04-51.48l8.05-.9Z"/>
  <path d="M398.08,1036.44l3.15-7.16c9.59,6.17,33.17,11.15,34.41-5.91s-31.42-7.13-34.66-26.06c-2.24-13.09,6.13-22.42,19.03-23.49,5.1-.42,17.16,1.63,21.04,4.94,1.47,1.25-1.19,4.83-2.39,5.72-7.68-3.15-23.25-7.04-27.85,2.51-7.68,15.93,13.78,14.69,23.05,18.6,16.57,6.99,13.9,27.39-1.16,33.72-12.16,5.11-22.82.55-34.63-2.86Z"/>
  <path d="M1198.06,974.04c4.93-.64,16.19.83,20.56,3.13,3.67,1.93,1.2,7.34-1.05,7.38-7.31-4.03-25.06-6.91-27.82,3.54-4.08,15.47,12.26,13.19,22.41,17.01,9.93,3.73,15.15,11.59,11.36,22.13-6.05,16.81-24.36,15.94-38.67,11.44-6.44-2.03-9.4-2.57-3.94-9.34,9.36,5.61,31.18,10.88,34.19-4.29,2.87-14.49-18.54-12.77-26.4-17.05-15.86-8.64-8.82-31.59,9.36-33.95Z"/>
  <path d="M506.38,957.7l-.51,17.92c1.82,2.47,15.89-.92,16.48,2.18-.24,7.38-15.89,1.99-16.86,7.19l.88,48.14c.96,2.28,12.62,1.33,15.23,1.53.6,8.67-12.39,8.29-17.91,5.82-6.9-3.08-6.78-9.31-7.19-16.08-.8-13.12.78-26.98-.09-40.18l-8.82-3.72c-.56-2.65,6.32-3.47,7.58-4.93,3.34-3.9-.91-18.01,11.21-17.87Z"/>
  <path d="M1058.65,957.69v18.79h14.77l1.34,2.23c-.76,3.6-13.67,4.14-17,4.04v48.77c0,.93,2.2,3.13,3.13,3.13h12.98c.74,11.52-21.72,7.55-23.97.25-.48-1.55-.99-6.75-1.13-8.72-.99-14.05.82-29.26.03-43.43-12.54-.05-10.6-5.51-.08-7.25-.29-8.23.43-16.31,9.94-17.81Z"/>
  <path d="M1514.24,947.85h8.96c.55,21,1.28,42.02.93,63.13-.09,5.47-2.82,17.28.47,21.82,1.29,1.78,5.39,2.92,5.79,5.88.05,4.82-13.08,1.4-14.81-2.23-.16-.33-1.34-5.52-1.34-5.82v-82.78Z"/>
  <path d="M781.17,1040.02l-9-1.45-.79-62.05,8.07-.56c2.18,1.56-.75,8.52,2.16,7.66,6.22-4.76,10.95-9.14,19.24-9.42.73-.02,1.08-1.3.93.94-.12,1.83-2.21,8.14-3.6,8.95s-3.73.3-5.43.84c-3.69,1.16-11.58,5.58-11.58,9.9v45.19Z"/>
  <path d="M1387.15,975.59l.45,8.07c7.23-4.06,12.06-9.3,21.02-9.85.92,12.19-7.11,9.15-14.05,13.24-5.88,3.46-6.12,8.6-6.57,14.91-.83,11.87.8,24.63-.09,36.6-.73,2.26-7.51,1.96-8.44.63-1.13-18.86.15-37.99-.35-56.92-.04-1.65-1.15-4.23-.87-5.22.7-2.48,6.8-1.17,8.89-1.46Z"/>
  <path d="M1584.96,967.55c-10.47-1.05-12.04-11.03-3.54-16.51,3.56-2.3,6.55-.7,9.38,2.15,8.27,8.34,1.66,20.15-5.84,26.44-1.64,1.38-6.11,5.6-7.62,2.21-2.03-4.55,8.03-8.21,7.62-14.3Z"/>
</svg>